<svg width="14" height="18" viewBox="0 0 14 18" fill="none" xmlns="http://www.w3.org/2000/svg">
<g id="Logo">
<path id="Vector" d="M11.0202 1.74647C10.263 1.52392 9.46335 1.47788 8.683 1.61601C7.90265 1.75415 7.16865 2.06879 6.5351 2.54074C5.90155 3.0127 5.38775 3.61896 5.03235 4.32114C4.67694 5.02332 4.49151 5.79841 4.49151 6.58501C4.49151 6.87279 4.49151 7.2258 4.51082 7.62485V15.794C4.47219 16.2851 4.24813 16.7456 3.88499 17.0832C3.52186 17.4209 3.03897 17.6051 2.54449 17.6051C2.05001 17.6051 1.56712 17.417 1.20398 17.0832C0.840848 16.7456 0.616788 16.2889 0.578157 15.794V6.64257C0.574294 5.43773 0.918112 4.25975 1.56712 3.24293C2.21612 2.22611 3.13941 1.41265 4.23654 0.898483C5.33367 0.384316 6.55442 0.192463 7.75585 0.338271C8.95728 0.487917 10.093 0.975224 11.0279 1.7388V1.74647H11.0202Z" fill="white"/>
<path id="Vector_2" d="M13.3498 6.48907V6.64256C13.3498 6.70779 13.3459 6.77302 13.3382 6.83825C13.2455 8.45749 12.5347 9.9808 11.3487 11.0974C10.1627 12.214 8.5943 12.8356 6.96019 12.8356C6.68978 12.8548 6.4155 12.8202 6.16053 12.732C5.90556 12.6437 5.66991 12.5017 5.46903 12.3176C5.26815 12.1334 5.10976 11.9108 5.00159 11.6653C4.89342 11.4159 4.83547 11.1511 4.83547 10.8787C4.83547 10.6062 4.89342 10.3415 5.00159 10.0921C5.10976 9.84267 5.26815 9.62012 5.46903 9.43977C5.66991 9.25559 5.90556 9.11746 6.16053 9.02537C6.4155 8.93712 6.68978 8.90259 6.96019 8.92177C7.59761 8.92177 8.20799 8.6762 8.66384 8.23494C9.11969 7.79368 9.38624 7.19509 9.40942 6.56582C9.39397 6.067 9.22399 5.58353 8.92267 5.18447C8.62134 4.78542 8.20412 4.48613 7.72896 4.32881C7.25379 4.17149 6.74 4.16381 6.25711 4.30578C5.77422 4.44776 5.34927 4.73554 5.03636 5.12692C4.69254 5.55667 4.50711 6.09002 4.50711 6.63872V7.62101C4.49166 7.22195 4.48779 6.86894 4.48779 6.58116C4.48779 5.79457 4.67322 5.01948 5.02863 4.3173C5.38404 3.61511 5.89784 3.00502 6.53139 2.5369C7.16494 2.06878 7.9028 1.7503 8.67929 1.61217C9.45964 1.47403 10.2593 1.52008 11.0165 1.74263C11.6964 2.299 12.2565 2.98967 12.6544 3.77243C13.0523 4.55519 13.2841 5.40702 13.3344 6.28187C13.3459 6.35094 13.3498 6.42001 13.3498 6.48907Z" fill="white"/>
<path id="Vector_3" d="M11.0204 1.74634C6.36918 1.10939 5.07503 5.01552 5.04026 5.13063C4.69644 5.56038 4.51101 6.09373 4.51101 6.64243V7.62472C4.49556 7.22567 4.4917 6.87266 4.4917 6.58488C4.4917 5.79828 4.67713 5.02319 5.03254 4.32101C5.38794 3.61883 5.90174 3.00874 6.53529 2.54061C7.16884 2.07249 7.9067 1.75402 8.68319 1.61588C9.46354 1.47775 10.2632 1.51996 11.0204 1.74634Z" fill="white"/>
</g>
</svg>
