<svg width="60" height="22" viewBox="0 0 60 22" fill="none" xmlns="http://www.w3.org/2000/svg">
<g id="Layer 2">
<g id="Vector">
<path d="M20.5832 18.2582C20.0506 18.26 19.5242 18.1444 19.042 17.9199C18.5599 17.6953 18.134 17.3673 17.7952 16.9597C17.4565 16.552 17.2132 16.0748 17.083 15.5626C16.9528 15.0503 16.939 14.5158 17.0425 13.9976C17.146 13.4794 17.3643 12.9905 17.6815 12.5661C17.9988 12.1418 18.4071 11.7926 18.877 11.5438C19.3469 11.295 19.8666 11.1528 20.3987 11.1275C20.9307 11.1021 21.4618 11.1943 21.9536 11.3973C22.6085 11.6715 23.1691 12.1284 23.5671 12.7125C24.0307 13.4013 24.2394 14.2281 24.1578 15.0523C24.0762 15.8765 23.7093 16.6472 23.1195 17.2335C22.4379 17.8849 21.5299 18.2518 20.5832 18.2582ZM20.5832 7.70934C19.1915 7.71156 17.8311 8.10292 16.6711 8.86561C15.5124 9.63459 14.6096 10.727 14.0768 12.0047C13.544 13.2825 13.4051 14.6882 13.6778 16.0442C13.9504 17.4002 14.6223 18.6456 15.6085 19.6229C16.5947 20.6003 17.8509 21.2658 19.2184 21.5352C20.5841 21.8032 21.999 21.6718 23.2908 21.1571C24.7956 20.5358 26.0368 19.4167 26.8034 17.9902C27.5699 16.5636 27.8144 14.9177 27.4953 13.3326C27.1761 11.7474 26.313 10.3208 25.0528 9.29562C23.7926 8.2704 22.2132 7.70985 20.5832 7.70934Z" fill="#373743"/>
<path d="M12.0296 2.39383C10.8794 1.24541 9.36235 0.529382 7.73831 0.368422C6.11428 0.207462 4.48435 0.611586 3.12777 1.51156C2.69536 1.80512 2.29695 2.1451 1.93976 2.52534C1.34756 3.13984 0.877086 3.85924 0.552823 4.64607C0.328354 5.1837 0.172431 5.747 0.0886702 6.32293C0.0342685 6.65642 0.00471848 6.99344 0.000260111 7.33124V19.9351C-0.00387418 20.1665 0.0413167 20.3962 0.132875 20.6091C0.184656 20.7364 0.253419 20.8562 0.337324 20.9653C0.387832 21.0366 0.443218 21.1043 0.503092 21.168C0.660377 21.3262 0.848348 21.4511 1.05566 21.5352C1.2625 21.6234 1.48529 21.6689 1.71044 21.6689C1.93559 21.6689 2.15839 21.6234 2.36523 21.5352C2.57068 21.4477 2.75802 21.3232 2.91779 21.168C2.98101 21.1058 3.03835 21.0379 3.08909 20.9653C3.18098 20.8576 3.25724 20.7377 3.31564 20.6091C3.40419 20.403 3.44932 20.181 3.44825 19.957V7.57235C3.4372 7.4374 3.4372 7.30179 3.44825 7.16684C3.45398 6.98287 3.47431 6.79964 3.50904 6.61885C3.50904 6.53665 3.54219 6.45993 3.56429 6.38321C3.72688 5.78152 4.04716 5.23322 4.4926 4.79403C4.99559 4.29507 5.63552 3.95393 6.33263 3.81313C6.85595 3.71207 7.39532 3.7271 7.91209 3.85713C8.42886 3.98716 8.91021 4.22898 9.32164 4.56525C9.73306 4.90151 10.0644 5.32389 10.2918 5.8021C10.5192 6.28031 10.6371 6.8025 10.6371 7.33124C10.6346 8.27832 10.2553 9.18615 9.5817 9.85748C9.46481 9.97326 9.33715 10.0778 9.20043 10.1698C8.75838 10.4973 8.24582 10.7186 7.70299 10.8165C7.48822 10.8594 7.27001 10.8833 7.05096 10.8877H6.9073C6.81529 10.8931 6.72303 10.8931 6.63102 10.8877H6.60339C6.2792 10.893 5.96311 10.9889 5.69139 11.1644C5.41967 11.3398 5.20335 11.5877 5.06726 11.8796C5.02757 11.9927 4.99436 12.108 4.9678 12.2248C4.94556 12.3441 4.93446 12.4652 4.93465 12.5865C4.93465 12.6413 4.93465 12.7016 4.93465 12.7564C4.93613 12.8724 4.94909 12.988 4.97333 13.1016C4.98553 13.1498 5.00028 13.1974 5.01753 13.2441C5.13358 13.5077 5.31504 13.7379 5.54499 13.9133C5.77494 14.0886 6.0459 14.2034 6.33263 14.2469C6.4116 14.2554 6.49126 14.2554 6.57023 14.2469C6.987 14.268 7.40481 14.2533 7.81903 14.2031C8.27131 14.1519 8.71738 14.0564 9.1507 13.9181C9.33834 13.8666 9.52284 13.8044 9.70327 13.7318C10.9909 13.2032 12.0924 12.309 12.8695 11.1617C13.7727 9.81725 14.1782 8.20393 14.017 6.59634C13.8558 4.98875 13.1821 3.53554 12.0296 2.39383Z" fill="#373743"/>
<path d="M52.3335 18.2582C51.6249 18.256 50.9326 18.047 50.343 17.6572C49.7535 17.2674 49.2926 16.7141 49.0181 16.0662C48.7484 15.412 48.6793 14.6934 48.8192 14.0003C48.9213 13.4819 49.1387 12.9925 49.4554 12.5678C49.772 12.1431 50.1802 11.7937 50.65 11.545C51.1199 11.2962 51.6398 11.1544 52.1718 11.1298C52.7039 11.1052 53.2348 11.1985 53.7259 11.4028C54.3848 11.6756 54.948 12.1349 55.345 12.7235C55.6728 13.2119 55.874 13.7731 55.9309 14.3571C55.9877 14.9411 55.8985 15.5301 55.671 16.0717C55.4911 16.5075 55.2242 16.9027 54.8863 17.2335C54.5493 17.5642 54.1492 17.825 53.7094 18.0006C53.2727 18.1767 52.8049 18.2643 52.3335 18.2582ZM52.3335 7.70934C50.9399 7.7108 49.5775 8.10219 48.4158 8.86561C47.2571 9.63459 46.3543 10.727 45.8215 12.0047C45.2887 13.2825 45.1498 14.6882 45.4225 16.0442C45.6951 17.4002 46.367 18.6456 47.3532 19.6229C48.3394 20.6003 49.5956 21.2658 50.9631 21.5352C52.3289 21.8032 53.7437 21.6718 55.0355 21.1571C56.5399 20.536 57.7808 19.4174 58.5474 17.9914C59.3141 16.5654 59.559 14.9201 59.2405 13.3352C58.9221 11.7504 58.06 10.3239 56.8007 9.29822C55.5415 8.27257 53.963 7.71111 52.3335 7.70934Z" fill="#373743"/>
<path d="M37.4253 7.75319C35.8257 7.52402 34.234 7.85126 32.8501 8.6793V2.03763C32.8491 1.81431 32.806 1.59314 32.723 1.38552C32.6313 1.18234 32.5041 0.996828 32.3473 0.837528C32.1896 0.678547 32.0018 0.551927 31.7947 0.464893C31.584 0.380063 31.3591 0.335442 31.1316 0.333375C30.6741 0.332863 30.235 0.512175 29.9105 0.832048C29.7517 0.990672 29.626 1.17881 29.5407 1.38569C29.4554 1.59257 29.412 1.81411 29.4132 2.03763V19.9625C29.4122 20.1842 29.4553 20.404 29.5403 20.6091C29.63 20.812 29.7554 20.9976 29.9105 21.1571C30.0678 21.3152 30.2557 21.4401 30.463 21.5242C30.6709 21.6121 30.8947 21.6568 31.1206 21.6558C31.3464 21.6556 31.5699 21.6109 31.7781 21.5242C31.9838 21.4372 32.1713 21.3126 32.3307 21.1571C32.491 21.0006 32.6187 20.8144 32.7065 20.6091C32.7894 20.4015 32.8325 20.1803 32.8335 19.957V14.8004C32.8201 13.8779 33.159 12.9845 33.7821 12.2995C34.4052 11.6144 35.2665 11.1884 36.1931 11.1069C36.6862 11.0731 37.1811 11.1404 37.6469 11.3044C38.1127 11.4684 38.5395 11.7258 38.9007 12.0604C39.2773 12.3899 39.5787 12.7953 39.7848 13.2496C39.9847 13.6984 40.0882 14.1836 40.0887 14.6743V19.9515C40.0855 20.3999 40.2578 20.8321 40.5694 21.1571C40.726 21.3161 40.9142 21.4411 41.122 21.5242C41.3338 21.6119 41.5611 21.6566 41.7906 21.6558C42.0165 21.6568 42.2403 21.6121 42.4481 21.5242C42.6538 21.4372 42.8413 21.3126 43.0007 21.1571C43.1633 21.0025 43.2913 20.8158 43.3764 20.6091C43.4584 20.4012 43.5015 20.1802 43.5035 19.957V14.8278C43.519 13.1204 42.9127 11.4648 41.7961 10.1652C40.6795 8.86555 39.1276 8.0091 37.4253 7.75319Z" fill="#373743"/>
</g>
</g>
</svg>
